<svg width="24" height="24" viewBox="0 0 24 24" fill="none" xmlns="http://www.w3.org/2000/svg">
<g opacity="0.6">
<path d="M12 14.9502C11.8667 14.9502 11.7417 14.9292 11.625 14.8872C11.5083 14.8459 11.4 14.7752 11.3 14.6752L6.675 10.0502C6.49167 9.86689 6.40433 9.63755 6.413 9.36222C6.421 9.08755 6.51667 8.85855 6.7 8.67522C6.88333 8.49189 7.11667 8.40022 7.4 8.40022C7.68333 8.40022 7.91667 8.49189 8.1 8.67522L12 12.5752L15.925 8.65022C16.1083 8.46689 16.3377 8.37922 16.613 8.38722C16.8877 8.39589 17.1167 8.49189 17.3 8.67522C17.4833 8.85855 17.575 9.09189 17.575 9.37522C17.575 9.65855 17.4833 9.89189 17.3 10.0752L12.7 14.6752C12.6 14.7752 12.4917 14.8459 12.375 14.8872C12.2583 14.9292 12.1333 14.9502 12 14.9502Z" fill="#111010"/>
</g>
</svg>
