<svg width="24" height="24" viewBox="0 0 24 24" fill="none" xmlns="http://www.w3.org/2000/svg">
<path d="M10.875 19.3006L4.275 12.7006C4.175 12.6006 4.104 12.4922 4.062 12.3756C4.02067 12.2589 4 12.1339 4 12.0006C4 11.8672 4.02067 11.7422 4.062 11.6256C4.104 11.5089 4.175 11.4006 4.275 11.3006L10.875 4.70057C11.0583 4.51724 11.2873 4.42124 11.562 4.41257C11.8373 4.40457 12.075 4.50057 12.275 4.70057C12.475 4.8839 12.5793 5.1129 12.588 5.38757C12.596 5.6629 12.5 5.90057 12.3 6.10057L7.4 11.0006H18.575C18.8583 11.0006 19.096 11.0962 19.288 11.2876C19.4793 11.4796 19.575 11.7172 19.575 12.0006C19.575 12.2839 19.4793 12.5212 19.288 12.7126C19.096 12.9046 18.8583 13.0006 18.575 13.0006H7.4L12.3 17.9006C12.4833 18.0839 12.5793 18.3172 12.588 18.6006C12.596 18.8839 12.5 19.1172 12.3 19.3006C12.1167 19.5006 11.8833 19.6006 11.6 19.6006C11.3167 19.6006 11.075 19.5006 10.875 19.3006Z" fill="#111010"/>
</svg>
