<svg width="154" height="154" viewBox="0 0 154 154" fill="none" xmlns="http://www.w3.org/2000/svg">
<path d="M141.295 107.928L121.211 60.9583C117.553 52.36 112.099 47.4833 105.875 47.1625C99.715 46.8417 93.7475 51.1408 89.1917 59.3542L77 81.235C74.4334 85.855 70.7759 88.6142 66.7975 88.935C62.755 89.32 58.7125 87.2025 55.44 83.0317L54.0284 81.235C49.4725 75.5242 43.8259 72.765 38.0509 73.3425C32.2759 73.92 27.335 77.8983 24.0625 84.3792L12.9617 106.517C8.98336 114.537 9.36836 123.842 14.0525 131.413C18.7367 138.985 26.8859 143.541 35.805 143.541H117.682C126.28 143.541 134.301 139.242 139.049 132.055C143.926 124.868 144.696 115.821 141.295 107.928Z" fill="#BFC9E8"/>
<path d="M44.7242 53.7717C56.7023 53.7717 66.4125 44.0615 66.4125 32.0834C66.4125 20.1052 56.7023 10.395 44.7242 10.395C32.746 10.395 23.0358 20.1052 23.0358 32.0834C23.0358 44.0615 32.746 53.7717 44.7242 53.7717Z" fill="#BFC9E8"/>
</svg>
