<svg width="145" height="50" viewBox="0 0 145 50" fill="none" xmlns="http://www.w3.org/2000/svg">
<g filter="url(#filter0_d_981_3889)">
<path d="M19.7064 15.6875L15.2945 16.6679L16.7651 20.0994L20.1966 17.6483L19.7064 15.6875Z" fill="white"/>
<path d="M23.1378 22.0603L21.6672 20.5896L18.2357 23.0407L20.6868 25.4917L23.1378 22.0603Z" fill="white"/>
<path d="M22.6476 27.4526L25.5889 24.5113L27.5498 25.4917L26.0791 29.4134L22.6476 27.4526Z" fill="white"/>
<path d="M7.45106 25.0015C5.88238 23.4329 5.1634 20.0994 5 18.6288L11.3728 17.1581L13.3336 22.0603L7.45106 25.0015Z" fill="white"/>
<path d="M25.0987 33.3351C20.0005 31.3743 16.1115 26.6356 14.8042 24.5113L9.41191 27.9428C12.5493 33.8254 19.543 37.9105 22.6476 39.2177L25.0987 33.3351Z" fill="white"/>
<path d="M27.5498 33.8254C32.648 35.9367 38.4978 34.7051 40.7855 33.8254L42.7463 40.1981C36.0795 42.159 28.2034 41.0151 25.0987 40.1981L27.5498 33.8254Z" fill="white"/>
<path d="M19.7064 15.6875L15.2945 16.6679L16.7651 20.0994L20.1966 17.6483L19.7064 15.6875Z" stroke="white" stroke-width="0.490212"/>
<path d="M23.1378 22.0603L21.6672 20.5896L18.2357 23.0407L20.6868 25.4917L23.1378 22.0603Z" stroke="white" stroke-width="0.490212"/>
<path d="M22.6476 27.4526L25.5889 24.5113L27.5498 25.4917L26.0791 29.4134L22.6476 27.4526Z" stroke="white" stroke-width="0.490212"/>
<path d="M7.45106 25.0015C5.88238 23.4329 5.1634 20.0994 5 18.6288L11.3728 17.1581L13.3336 22.0603L7.45106 25.0015Z" stroke="white" stroke-width="0.490212"/>
<path d="M25.0987 33.3351C20.0005 31.3743 16.1115 26.6356 14.8042 24.5113L9.41191 27.9428C12.5493 33.8254 19.543 37.9105 22.6476 39.2177L25.0987 33.3351Z" stroke="white" stroke-width="0.490212"/>
<path d="M27.5498 33.8254C32.648 35.9367 38.4978 34.7051 40.7855 33.8254L42.7463 40.1981C36.0795 42.159 28.2034 41.0151 25.0987 40.1981L27.5498 33.8254Z" stroke="white" stroke-width="0.490212"/>
<path fill-rule="evenodd" clip-rule="evenodd" d="M9.90157 0C10.5552 1.79744 14.9998 4.90212 27.5492 2.94127C43.236 0.490212 65.2955 -0.490212 61.3738 12.2553C57.6156 10.2945 48.4322 8.43165 41.7654 16.6672C40.7849 17.9744 38.8241 21.6674 38.8241 25.9812C38.8241 29.1653 37.1149 30.982 35.2103 31.2295C32.3747 31.598 31.4153 27.8936 30.8652 25.0876C30.0061 20.7058 28.2344 15.4366 25.0981 13.7259C23.6859 12.9556 21.6011 12.4543 19.3899 11.9225C13.158 10.424 5.9215 8.68379 9.90157 0ZM34.9027 13.726C37.3393 13.726 39.3146 11.7507 39.3146 9.31405C39.3146 6.87742 37.3393 4.90214 34.9027 4.90214C32.4661 4.90214 30.4908 6.87742 30.4908 9.31405C30.4908 11.7507 32.4661 13.726 34.9027 13.726Z" fill="#E2282C"/>
<path d="M51.9652 31.2C50.8318 31.2 49.7852 31.06 48.8252 30.78C47.8785 30.4867 47.0652 30.0867 46.3852 29.58L47.1852 27.56C47.6385 27.88 48.1118 28.1533 48.6052 28.38C49.0985 28.5933 49.6252 28.76 50.1852 28.88C50.7452 28.9867 51.3385 29.04 51.9652 29.04C53.0185 29.04 53.7785 28.8667 54.2452 28.52C54.7118 28.1733 54.9452 27.72 54.9452 27.16C54.9452 26.6667 54.7852 26.2933 54.4652 26.04C54.1452 25.7733 53.5718 25.5533 52.7452 25.38L50.4852 24.92C49.1918 24.6533 48.2252 24.2067 47.5852 23.58C46.9452 22.9533 46.6252 22.1133 46.6252 21.06C46.6252 20.18 46.8585 19.4133 47.3252 18.76C47.7918 18.1067 48.4452 17.6 49.2852 17.24C50.1252 16.88 51.1052 16.7 52.2252 16.7C53.2252 16.7 54.1518 16.8467 55.0052 17.14C55.8585 17.42 56.5718 17.8267 57.1452 18.36L56.3452 20.28C55.7718 19.8 55.1452 19.4467 54.4652 19.22C53.7852 18.98 53.0252 18.86 52.1852 18.86C51.2385 18.86 50.4985 19.0467 49.9652 19.42C49.4452 19.78 49.1852 20.28 49.1852 20.92C49.1852 21.4133 49.3452 21.8067 49.6652 22.1C49.9985 22.3933 50.5585 22.62 51.3452 22.78L53.5852 23.22C54.9185 23.4867 55.9052 23.9267 56.5452 24.54C57.1852 25.14 57.5052 25.9533 57.5052 26.98C57.5052 27.82 57.2785 28.56 56.8252 29.2C56.3718 29.8267 55.7318 30.32 54.9052 30.68C54.0785 31.0267 53.0985 31.2 51.9652 31.2ZM60.1358 35.32V23.42C60.1358 23.0067 60.1224 22.5867 60.0958 22.16C60.0691 21.7333 60.0291 21.3133 59.9758 20.9H62.3958L62.6158 23.02H62.3958C62.5958 22.3133 63.0158 21.7533 63.6558 21.34C64.3091 20.9133 65.0624 20.7 65.9158 20.7C66.8091 20.7 67.5891 20.9133 68.2558 21.34C68.9224 21.7533 69.4424 22.3533 69.8158 23.14C70.1891 23.9133 70.3758 24.8467 70.3758 25.94C70.3758 27.0333 70.1891 27.9733 69.8158 28.76C69.4424 29.5467 68.9224 30.1533 68.2558 30.58C67.5891 30.9933 66.8091 31.2 65.9158 31.2C65.0758 31.2 64.3358 30.9933 63.6958 30.58C63.0558 30.1667 62.6291 29.6133 62.4158 28.92H62.6358V35.32H60.1358ZM65.2158 29.28C66.0158 29.28 66.6558 29.0067 67.1358 28.46C67.6158 27.9 67.8558 27.06 67.8558 25.94C67.8558 24.82 67.6158 23.9867 67.1358 23.44C66.6558 22.8933 66.0158 22.62 65.2158 22.62C64.4291 22.62 63.7958 22.8933 63.3158 23.44C62.8358 23.9867 62.5958 24.82 62.5958 25.94C62.5958 27.06 62.8358 27.9 63.3158 28.46C63.7958 29.0067 64.4291 29.28 65.2158 29.28ZM76.8381 31.2C75.9581 31.2 75.1848 30.9933 74.5181 30.58C73.8515 30.1533 73.3315 29.5467 72.9581 28.76C72.5848 27.9733 72.3981 27.0333 72.3981 25.94C72.3981 24.8467 72.5848 23.9133 72.9581 23.14C73.3315 22.3533 73.8515 21.7533 74.5181 21.34C75.1848 20.9133 75.9581 20.7 76.8381 20.7C77.6915 20.7 78.4381 20.9133 79.0781 21.34C79.7315 21.7533 80.1648 22.3133 80.3781 23.02H80.1581L80.3781 20.9H82.7781C82.7381 21.3133 82.6981 21.7333 82.6581 22.16C82.6315 22.5867 82.6181 23.0067 82.6181 23.42V31H80.1381L80.1181 28.92H80.3581C80.1448 29.6133 79.7115 30.1667 79.0581 30.58C78.4048 30.9933 77.6648 31.2 76.8381 31.2ZM77.5381 29.28C78.3248 29.28 78.9581 29.0067 79.4381 28.46C79.9181 27.9 80.1581 27.06 80.1581 25.94C80.1581 24.82 79.9181 23.9867 79.4381 23.44C78.9581 22.8933 78.3248 22.62 77.5381 22.62C76.7515 22.62 76.1181 22.8933 75.6381 23.44C75.1581 23.9867 74.9181 24.82 74.9181 25.94C74.9181 27.06 75.1515 27.9 75.6181 28.46C76.0981 29.0067 76.7381 29.28 77.5381 29.28ZM85.7205 31V23.48C85.7205 23.0533 85.7071 22.62 85.6805 22.18C85.6671 21.74 85.6338 21.3133 85.5805 20.9H88.0005L88.2805 23.66H87.8805C88.0138 22.9933 88.2338 22.44 88.5405 22C88.8605 21.56 89.2471 21.2333 89.7005 21.02C90.1538 20.8067 90.6471 20.7 91.1805 20.7C91.4205 20.7 91.6138 20.7133 91.7605 20.74C91.9071 20.7533 92.0538 20.7867 92.2005 20.84L92.1805 23.04C91.9271 22.9333 91.7071 22.8667 91.5205 22.84C91.3471 22.8133 91.1271 22.8 90.8605 22.8C90.2871 22.8 89.8005 22.92 89.4005 23.16C89.0138 23.4 88.7205 23.7333 88.5205 24.16C88.3338 24.5867 88.2405 25.0733 88.2405 25.62V31H85.7205ZM98.7158 31.2C97.0224 31.2 95.6958 30.7333 94.7358 29.8C93.7758 28.8667 93.2958 27.5867 93.2958 25.96C93.2958 24.9067 93.5024 23.9867 93.9158 23.2C94.3291 22.4133 94.9024 21.8 95.6358 21.36C96.3824 20.92 97.2491 20.7 98.2358 20.7C99.2091 20.7 100.022 20.9067 100.676 21.32C101.329 21.7333 101.822 22.3133 102.156 23.06C102.502 23.8067 102.676 24.68 102.676 25.68V26.34H95.3158V25.02H100.896L100.556 25.3C100.556 24.3667 100.356 23.6533 99.9558 23.16C99.5691 22.6667 99.0024 22.42 98.2558 22.42C97.4291 22.42 96.7891 22.7133 96.3358 23.3C95.8958 23.8867 95.6758 24.7067 95.6758 25.76V26.02C95.6758 27.1133 95.9424 27.9333 96.4758 28.48C97.0224 29.0133 97.7891 29.28 98.7758 29.28C99.3491 29.28 99.8824 29.2067 100.376 29.06C100.882 28.9 101.362 28.6467 101.816 28.3L102.556 29.98C102.076 30.3667 101.502 30.6667 100.836 30.88C100.169 31.0933 99.4624 31.2 98.7158 31.2Z" fill="white"/>
<path d="M105.193 31V16.28H107.693V22.92H107.413C107.719 22.2 108.193 21.6533 108.833 21.28C109.473 20.8933 110.206 20.7 111.033 20.7C112.233 20.7 113.126 21.04 113.713 21.72C114.299 22.3867 114.593 23.4067 114.593 24.78V31H112.093V24.9C112.093 24.1133 111.939 23.5467 111.633 23.2C111.339 22.84 110.866 22.66 110.213 22.66C109.453 22.66 108.839 22.9 108.373 23.38C107.919 23.8467 107.693 24.4733 107.693 25.26V31H105.193ZM121.284 31.2C120.044 31.2 119.117 30.86 118.504 30.18C117.89 29.5 117.584 28.46 117.584 27.06V20.9H120.084V27.04C120.084 27.7867 120.237 28.34 120.544 28.7C120.85 29.0467 121.317 29.22 121.944 29.22C122.65 29.22 123.224 28.98 123.664 28.5C124.117 28.02 124.344 27.3867 124.344 26.6V20.9H126.844V31H124.404V28.94H124.684C124.39 29.66 123.944 30.22 123.344 30.62C122.757 31.0067 122.07 31.2 121.284 31.2ZM135.738 31.2C134.884 31.2 134.138 30.9933 133.498 30.58C132.858 30.1533 132.431 29.58 132.218 28.86H132.438V31H129.958V16.28H132.458V22.96H132.218C132.444 22.2667 132.878 21.72 133.518 21.32C134.158 20.9067 134.898 20.7 135.738 20.7C136.631 20.7 137.411 20.9133 138.078 21.34C138.744 21.7667 139.264 22.3733 139.638 23.16C140.011 23.9333 140.198 24.8667 140.198 25.96C140.198 27.0533 140.011 27.9933 139.638 28.78C139.264 29.5533 138.738 30.1533 138.058 30.58C137.391 30.9933 136.618 31.2 135.738 31.2ZM135.038 29.28C135.824 29.28 136.458 29.0067 136.938 28.46C137.431 27.9133 137.678 27.08 137.678 25.96C137.678 24.84 137.431 24.0067 136.938 23.46C136.458 22.9 135.824 22.62 135.038 22.62C134.251 22.62 133.618 22.8933 133.138 23.44C132.658 23.9867 132.418 24.82 132.418 25.94C132.418 27.06 132.658 27.9 133.138 28.46C133.618 29.0067 134.251 29.28 135.038 29.28Z" fill="#E2282C"/>
</g>
<defs>
<filter id="filter0_d_981_3889" x="0.730469" y="0" width="143.469" height="49.5264" filterUnits="userSpaceOnUse" color-interpolation-filters="sRGB">
<feFlood flood-opacity="0" result="BackgroundImageFix"/>
<feColorMatrix in="SourceAlpha" type="matrix" values="0 0 0 0 0 0 0 0 0 0 0 0 0 0 0 0 0 0 127 0" result="hardAlpha"/>
<feOffset dy="4"/>
<feGaussianBlur stdDeviation="2"/>
<feComposite in2="hardAlpha" operator="out"/>
<feColorMatrix type="matrix" values="0 0 0 0 0 0 0 0 0 0 0 0 0 0 0 0 0 0 0.25 0"/>
<feBlend mode="normal" in2="BackgroundImageFix" result="effect1_dropShadow_981_3889"/>
<feBlend mode="normal" in="SourceGraphic" in2="effect1_dropShadow_981_3889" result="shape"/>
</filter>
</defs>
</svg>
