<svg width="24" height="24" viewBox="0 0 24 24" fill="none" xmlns="http://www.w3.org/2000/svg">
<path d="M11.9996 16.3299C9.60962 16.3299 7.66962 14.3899 7.66962 11.9999C7.66962 9.60992 9.60962 7.66992 11.9996 7.66992C14.3896 7.66992 16.3296 9.60992 16.3296 11.9999C16.3296 14.3899 14.3896 16.3299 11.9996 16.3299ZM11.9996 9.16992C10.4396 9.16992 9.16962 10.4399 9.16962 11.9999C9.16962 13.5599 10.4396 14.8299 11.9996 14.8299C13.5596 14.8299 14.8296 13.5599 14.8296 11.9999C14.8296 10.4399 13.5596 9.16992 11.9996 9.16992Z" fill="#292D32"/>
<path d="M11.9996 21.02C8.23959 21.02 4.68959 18.82 2.24959 15C1.18959 13.35 1.18959 10.66 2.24959 8.99998C4.69959 5.17998 8.24959 2.97998 11.9996 2.97998C15.7496 2.97998 19.2996 5.17998 21.7396 8.99998C22.7996 10.65 22.7996 13.34 21.7396 15C19.2996 18.82 15.7496 21.02 11.9996 21.02ZM11.9996 4.47998C8.76959 4.47998 5.67959 6.41998 3.51959 9.80998C2.76959 10.98 2.76959 13.02 3.51959 14.19C5.67959 17.58 8.76959 19.52 11.9996 19.52C15.2296 19.52 18.3196 17.58 20.4796 14.19C21.2296 13.02 21.2296 10.98 20.4796 9.80998C18.3196 6.41998 15.2296 4.47998 11.9996 4.47998Z" fill="#292D32"/>
</svg>
